<?xml version="1.0" encoding="utf-8"?>
<!-- Generator: Adobe Illustrator 15.0.0, SVG Export Plug-In . SVG Version: 6.00 Build 0)  -->
<!DOCTYPE svg PUBLIC "-//W3C//DTD SVG 1.1//EN" "http://www.w3.org/Graphics/SVG/1.1/DTD/svg11.dtd">
<svg version="1.1" id="Layer_1" xmlns="http://www.w3.org/2000/svg" xmlns:xlink="http://www.w3.org/1999/xlink" x="0px" y="0px"
	 width="100px" height="100px" viewBox="0 0 100 100" enable-background="new 0 0 100 100" xml:space="preserve">
<path d="M18.482,62.737c0.003,0.004,0.008,0.006,0.019,0.006h3.993c0.097,0,0.178-0.053,0.228-0.129
	c0.001,0.002,0.003,0.001,0.004,0.003l3.322-5.79l3.312,5.774c0.046,0.083,0.139,0.142,0.24,0.142h9.957
	c0.001,0,0.004-0.002,0.006-0.003c0.087-0.003,0.159-0.046,0.208-0.111c0.001,0.001,0.002,0.001,0.004,0.002l3.328-5.804
	l3.321,5.791c0.002-0.001,0.005,0,0.007-0.001c0.05,0.075,0.131,0.126,0.227,0.126h2.289h1.639h2.354
	c0.097,0,0.179-0.053,0.228-0.129c0.002,0.002,0.004,0.001,0.004,0.003l3.322-5.79l3.312,5.774c0.046,0.083,0.14,0.142,0.24,0.142
	H70c0.002,0,0.004-0.002,0.006-0.003c0.088-0.003,0.16-0.046,0.209-0.111c0,0.001,0.002,0.001,0.004,0.002l3.328-5.804l3.32,5.791
	c0.002-0.001,0.006,0,0.008-0.001c0.049,0.075,0.131,0.126,0.227,0.126h3.927c0.086,0,0.158-0.072,0.158-0.16
	c0-0.025-0.006-0.05-0.02-0.071c0-0.001,0.002-0.001,0-0.003L66.57,37.204c-0.041-0.041-0.084-0.082-0.162-0.082H63.51
	c-0.041,0-0.123,0.041-0.162,0.082L49.766,60.851L36.125,37.204c-0.041-0.041-0.083-0.082-0.162-0.082h-2.898
	c-0.041,0-0.123,0.041-0.163,0.082L18.363,62.52h0c-0.009,0.021-0.014,0.041-0.014,0.063C18.35,62.662,18.407,62.724,18.482,62.737z
	 M64.979,41.937l1.715,2.979h-3.428L64.979,41.937z M62.041,48.669h5.916l1.875,3.263h-9.668L62.041,48.669z M69.832,55.726
	l-1.875,3.265h-5.916l-1.877-3.265H69.832z M34.534,41.937l1.714,2.979h-3.428L34.534,41.937z M31.597,48.669h5.917l1.875,3.263
	H29.72L31.597,48.669z M39.388,55.726l-1.875,3.265h-5.917l-1.876-3.265H39.388z M96.351,89.807c0-0.001,0.002-0.001,0-0.003
	L81.754,64.499c-0.041-0.041-0.084-0.082-0.162-0.082h-2.898c-0.041,0-0.123,0.041-0.162,0.082L65.087,87.906L51.584,64.499
	c-0.041-0.041-0.083-0.082-0.162-0.082h-2.898c-0.041,0-0.123,0.041-0.163,0.082L34.644,88.384L20.866,64.499
	c-0.041-0.041-0.084-0.082-0.162-0.082h-2.898c-0.041,0-0.123,0.041-0.162,0.082L3.104,89.814h0.001
	c-0.01,0.021-0.014,0.041-0.014,0.063c0,0.079,0.057,0.141,0.131,0.154c0.004,0.004,0.009,0.006,0.02,0.006h3.993
	c0.097,0,0.179-0.053,0.228-0.129c0.002,0.002,0.004,0.001,0.004,0.003l3.322-5.79l3.312,5.774c0.046,0.083,0.14,0.142,0.24,0.142
	h9.956c0.002,0,0.004-0.002,0.006-0.003c0.088-0.003,0.16-0.046,0.209-0.111c0,0.001,0.002,0.001,0.004,0.002l3.328-5.804
	l3.32,5.791c0.002-0.001,0.006,0,0.008-0.001c0.049,0.075,0.131,0.126,0.227,0.126h2.562h1.365h2.628
	c0.097,0,0.178-0.053,0.228-0.129c0.001,0.002,0.003,0.001,0.004,0.003l3.322-5.79l3.312,5.774c0.046,0.083,0.139,0.142,0.24,0.142
	h9.957c0.001,0,0.004-0.002,0.006-0.003c0.087-0.003,0.159-0.046,0.208-0.111c0.001,0.001,0.002,0.001,0.004,0.002l3.328-5.804
	l3.321,5.791c0.002-0.001,0.005,0,0.007-0.001c0.05,0.075,0.131,0.126,0.227,0.126h2.014h1.913h2.08
	c0.097,0,0.179-0.053,0.228-0.129c0.002,0.002,0.004,0.001,0.004,0.003l3.322-5.79l3.312,5.774c0.046,0.083,0.14,0.142,0.24,0.142
	h9.956c0.002,0,0.004-0.002,0.006-0.003c0.088-0.003,0.16-0.046,0.209-0.111c0,0.001,0.002,0.001,0.004,0.002l3.328-5.804
	l3.32,5.791c0.002-0.001,0.006,0,0.008-0.001c0.049,0.075,0.131,0.126,0.227,0.126h3.927c0.086,0,0.158-0.072,0.158-0.16
	C96.37,89.853,96.364,89.828,96.351,89.807z M19.274,69.231l1.715,2.979h-3.428L19.274,69.231z M22.253,86.285h-5.916l-1.877-3.265
	h9.668L22.253,86.285z M14.46,79.227l1.877-3.263h5.916l1.875,3.263H14.46z M49.993,69.231l1.714,2.979h-3.428L49.993,69.231z
	 M52.972,86.285h-5.917l-1.876-3.265h9.668L52.972,86.285z M45.179,79.227l1.876-3.263h5.917l1.875,3.263H45.179z M80.162,69.231
	l1.715,2.979h-3.428L80.162,69.231z M83.141,86.285h-5.916l-1.877-3.265h9.668L83.141,86.285z M75.348,79.227l1.877-3.263h5.916
	l1.875,3.263H75.348z M33.94,35.639c0.003,0.003,0.008,0.005,0.019,0.005h3.993c0.097,0,0.178-0.052,0.228-0.128
	c0.001,0.001,0.003,0,0.004,0.002l3.322-5.79l3.312,5.774c0.046,0.083,0.139,0.141,0.24,0.141h9.957
	c0.001,0,0.004-0.002,0.006-0.002c0.087-0.002,0.159-0.046,0.208-0.111c0.001,0.001,0.002,0.001,0.004,0.002l3.328-5.803
	l3.321,5.791c0.002-0.001,0.005,0,0.007-0.001c0.05,0.075,0.131,0.125,0.227,0.125h3.927c0.087,0,0.159-0.071,0.159-0.16
	c0-0.025-0.007-0.05-0.02-0.071c0-0.001,0.001-0.001,0-0.003L51.584,10.106c-0.041-0.041-0.083-0.082-0.162-0.082h-2.898
	c-0.041,0-0.123,0.041-0.163,0.082l-14.54,25.315h0c-0.009,0.02-0.014,0.041-0.014,0.063C33.809,35.563,33.866,35.625,33.94,35.639z
	 M49.993,14.838l1.714,2.979h-3.428L49.993,14.838z M47.055,21.57h5.917l1.875,3.263h-9.668L47.055,21.57z M54.847,28.627
	l-1.875,3.264h-5.917l-1.876-3.264H54.847z"/>
</svg>
